<?xml version="1.0" encoding="UTF-8" standalone="no"?>
<svg width="512" height="503" viewBox="0 0 668 656" version="1.1" xmlns="http://www.w3.org/2000/svg">
    <g transform="matrix(1,0,0,1,-168,-185)">
        <path d="M604.5,185C731.44,185 834.5,288.06 834.5,415C834.5,518.109 766.504,605.463 672.944,634.627L836,841L666,841L518,646C444.557,639.497 402.172,668.761 378,719L332,841L184,841L256,652C306.259,563.345 378.325,514.255 474,508L604.5,508C655.276,508 696.5,466.776 696.5,416C696.5,365.224 656.776,324 606,324L427,324C427,324 496.776,412.899 497.989,413.99C497.991,413.991 367.499,414 342,414L168,185L604.5,185Z" fill="white"/>
    </g>
</svg>
